<svg xmlns="http://www.w3.org/2000/svg" opacity=".33" viewBox="0 0 210 297"><path fill="#333" stroke="#000" stroke-width=".466" d="M135.744 102.01s-54.01 45.87-85.56 61.71c-11.386 5.718-36.553 11.587-36.553 11.587l56.288 61.235s8.633-23.063 15.153-33.476c19.12-30.53 69.277-83.427 69.277-83.427z"/><ellipse cx="163.182" cy="91.36" rx="32.198" ry="29.226"/><ellipse cx="-27.078" cy="232.464" rx="36.069" ry="23.542" transform="matrix(.76805 .6404 .2677 .9635 0 0)"/><ellipse cx="166.807" cy="79.094" fill="#333" rx="15.264" ry="13.685"/><g><path stroke="#000" stroke-width=".466" d="M149.425 14.982s-3.842 8.902-12.12 13.267c-12.283 6.473-31.467 9.925-39.155 15.937C84.84 54.595 77.695 71.5 72.515 87.327c-7.397 22.602-10.657 47.443-6.746 70.855 3.94 23.582 13.503 47.626 29.68 65.606 14.223 15.805 55.317 32.802 55.317 32.802l16.19-9.184s-15.455-21.272-21.586-32.803c-8.247-15.51-16.19-41.988-20.237-48.548-4.048-6.56-5.725-41.306-2.698-61.67C125.02 87 135.18 71.46 139.975 54.525c1.686-5.96 13.44-29.84 18.123-35.555 1.647-2.01-8.673-3.988-8.673-3.988z"/></g><g><path fill="#333" d="M153.99 24.887s-11.598 8.808-16.1 14.38c-6.56 8.124-15.383 27.14-15.383 27.14s-10.116 19.83-12.76 30.5c-3.775 15.237-4.177 46.842-4.177 46.842s1.626 25.227 5.734 37.066c3.813 10.99 17.202 30.506 17.202 30.506l28.333 37.068 2.36 2.952 7.757-3.936s-13.235-18.318-18.55-28.21c-2.85-5.3-6.747-14.926-7.084-16.566-.187-.908-4.12-8.214-7.525-16.525-2.743-6.7-4.4-10.713-5.798-16.278-3.28-13.057-7.034-29.696-6.915-43.136.12-13.36 3.913-30.26 7.59-43.135 1.528-5.352 2.44-5.616 5.234-12.364 8.52-20.583 20.08-46.303 20.08-46.303z"/></g></svg>