<svg xmlns="http://www.w3.org/2000/svg" width="350" height="500" version="1" opacity=".33"><path d="M225.845 264.616c-4.17 6.27-13.612 8.562-19.267 14.055-6.772 6.58-17.427 16.794-31.832 16.84-13.764.044-26.796-7.867-34.25-17.126-4.134-5.135-16.155-8.366-19.526-13.768-4.65-7.45-8.595-19.844-7.742-26.707.358-2.876 9.905-5.694 11.375-2.507 11.508 24.96 28.377 29.312 49.912 29.312 20.895 0 35.32.428 47.58-28.93 2.124-5.09 10.472-1.125 11.455 2.093 3.508 11.49.034.008.068.015.034.008-2.907 19.405-7.773 26.723zm-50.66 84.456c27.498-11.49 70.385-28.88 99.067-33.766 8.278-17.355 51.108-53.183 42.98.72 24.298 16.763 14.147 45.995-31.183 20.294-22.805 1.665-64.03 18.29-83.255 27.91 18.106 8.32 54.633 29.964 70.44 39.05 94.38 8.44 52.338 37.134 28.94 39.914.472 12.287-39.003 36.42-49.673-17.884-10.55-10.62-66.11-44.222-79.796-46.925-18.794 7.07-62.407 34.427-80.047 49.63-5.91 38.622-25.977 35.176-45.136 13.444-37.72-.477-50.782-39.803 29.878-41.228 15.548-7.976 51.79-28.774 68.296-36.003-28.863-11.765-62.84-22.77-85.68-27.763-33.615 24.238-56.89 2.613-30.944-20.08-2.696-11.228 2.644-46.615 51.067-4.137 18.79 6.285 72.342 26.723 95.046 36.822zm-.776-162.75c-4.164 7.368-18.816 19.212-18.85 23.516-.095 11.418 11.27 11.593 19.052 6.563 7.97 4.273 18.983 6.095 18.48-6.844-.19-4.925-13.168-14.243-18.683-23.233zm38.507 45.398c-4.036 2.54-1.942 11.967-6.34 13.655-19.632 7.538-44.333 5.877-63.637.786-6.093-1.606-5.366-13.233-7.64-14.44-13.615-7.23-33.645-9.05-44.344-18.038-4.885-4.104-1.977-31.677-10.687-36.89-7.967-4.77-11.157-22.03-13.962-36.767-2.79-14.658-4.923-44.104 11.936-63.842 16.86-19.74 48.442-36.11 96.772-36.11 48.298 0 80.69 15.443 96.654 36.11 16.018 20.737 11.634 50.116 9.146 63.842-2.727 15.045-10.037 30.68-16.44 36.355-6.663 5.904-4.588 34.19-7.415 37.302-5.548 6.108-31.284 10.013-44.043 18.038zm-112.69-69.076c-.414 20.6 20.23 30.065 37.204 24.295 19.476-6.62 21.976-41.537.992-47.65-17.21-5.01-37.762 1.747-38.195 23.354zM225.82 188.11c22.38-2.8 29.112-38.187 9.722-47.61-15.61-7.586-39.697-1.544-41.895 19.655-2.645 25.52 15.8 30.005 32.174 27.956z"/></svg>